<?xml version="1.0" encoding="UTF-8"?>
<svg width="854px" height="427px" viewBox="0 0 854 427" version="1.1" xmlns="http://www.w3.org/2000/svg" xmlns:xlink="http://www.w3.org/1999/xlink">
    <!-- Generator: Sketch 39.1 (31720) - http://www.bohemiancoding.com/sketch -->
    <title>Group 18</title>
    <desc>Created with Sketch.</desc>
    <defs></defs>
    <g id="Page-1" stroke="none" stroke-width="1" fill="none" fill-rule="evenodd">
        <g id="Nordinary-logo" fill="#0000C8">
            <polygon id="Fill-1" points="106.9502 134.0669 106.9502 264.5049 82.5392 264.5049 30.9232 180.2789 28.5012 180.2789 28.5012 264.5049 4.0902 264.5049 4.0902 134.0669 28.6872 134.0669 80.3032 216.0569 82.5392 216.0569 82.5392 134.0669"></polygon>
            <g id="Group-18">
                <path d="M196.2061,217.9199 C196.2061,203.3859 187.6341,192.0189 173.4731,192.0189 C159.3101,192.0189 149.8071,203.3859 149.8071,217.9199 C149.8071,232.4549 159.3101,243.8209 173.4731,243.8209 C187.6341,243.8209 196.2061,232.4549 196.2061,217.9199 M125.3961,218.1069 C125.3961,188.2919 148.5031,170.4029 173.4731,170.4029 C198.6281,170.4029 220.6171,188.4789 220.6171,217.7329 C220.6171,247.3619 197.8831,265.4369 172.7271,265.4369 C147.3851,265.4369 125.3961,247.3619 125.3961,218.1069" id="Fill-3"></path>
                <path d="M297.9482,170.4033 L297.9482,194.2553 C296.0852,193.8823 292.9172,193.5093 289.7492,193.5093 C276.7052,193.5093 263.1022,200.2173 263.1022,217.3613 L263.1022,264.5053 L238.3192,264.5053 L238.3192,171.3353 L257.3262,171.3353 L260.6802,181.5843 L263.6612,181.5843 C267.7612,177.4843 276.8912,170.4033 292.1712,170.4033 L297.9482,170.4033 Z" id="Fill-5"></path>
                <path d="M372.8584,217.9199 C372.8584,202.4539 364.4734,193.3229 352.3614,193.3229 C340.9944,193.3229 329.6284,201.5219 329.6284,217.9199 C329.6284,234.3179 340.9944,242.5169 352.3614,242.5169 C364.4734,242.5169 372.8584,233.3859 372.8584,217.9199 L372.8584,217.9199 Z M396.1514,132.2039 L396.1514,264.5049 L377.8894,264.5049 L375.2814,255.5609 L372.4854,255.5609 C366.7094,261.8969 358.8834,265.4369 348.8204,265.4369 C325.1554,265.4369 305.4034,246.0579 305.4034,217.9199 C305.4034,189.7829 325.1554,170.4029 348.8204,170.4029 C358.5104,170.4029 366.8954,173.7569 372.8584,180.4659 L372.8584,132.2039 L396.1514,132.2039 Z" id="Fill-6"></path>
                <polygon id="Fill-7" points="443.854 264.505 420.002 264.505 420.002 171.335 443.854 171.335"></polygon>
                <path d="M558.2671,214.0068 L558.2671,264.5048 L533.4841,264.5048 L533.4841,219.5968 C533.4841,216.4288 535.7201,192.9498 517.8311,192.0188 C509.0731,191.4598 493.4201,196.3048 493.4201,220.7148 L493.4201,264.5048 L468.8241,264.5048 L468.8241,171.3348 L487.8301,171.3348 L490.9981,182.7018 L494.1661,182.7018 C498.0791,178.0428 506.8371,170.4028 522.4901,170.4028 C546.5271,170.4028 558.2671,188.2918 558.2671,214.0068" id="Fill-8"></path>
                <path d="M633.3613,225.3735 L633.3613,223.5105 C616.4043,225.3735 599.6333,227.4235 599.6333,237.1135 C599.6333,251.2745 631.8703,250.1575 633.3613,225.3735 M667.2753,246.6165 L667.2753,264.5045 L661.6853,264.5045 C650.8773,264.5045 643.2373,260.5915 640.0693,252.5795 C634.4793,260.2195 625.1623,265.4365 610.6283,265.4365 C589.5713,265.4365 576.1543,254.6285 576.1543,237.8585 C576.1543,208.7895 615.8453,206.1805 633.7343,205.2485 C633.3613,194.4415 627.3983,190.5285 617.8953,190.5285 C604.6653,190.5285 603.7333,198.5405 603.7333,198.5405 L580.4413,198.5405 C582.1173,181.9565 595.7203,170.4035 618.4543,170.4035 C640.6293,170.4035 656.2813,181.3975 656.2813,208.4165 L656.2813,233.2005 C656.2813,244.0075 660.1943,246.6165 667.2753,246.6165" id="Fill-9"></path>
                <path d="M742.5566,170.4033 L742.5566,194.2553 C740.6936,193.8823 737.5256,193.5093 734.3576,193.5093 C721.3136,193.5093 707.7106,200.2173 707.7106,217.3613 L707.7106,264.5053 L682.9276,264.5053 L682.9276,171.3353 L701.9346,171.3353 L705.2886,181.5843 L708.2696,181.5843 C712.3696,177.4843 721.4996,170.4033 736.7796,170.4033 L742.5566,170.4033 Z" id="Fill-10"></path>
                <path d="M853.431,171.335 L821.008,268.046 C815.79,283.512 809.641,302.705 781.5037,302.705 C764.7327,302.705 755.9747,295.997 753.1797,292.456 L764.9187,275.872 C765.8507,276.804 771.6277,281.648 779.4537,281.648 C787.2797,281.648 792.4977,278.481 794.5477,272.145 L797.1557,264.505 L784.6707,264.505 L752.6207,171.335 L778.5217,171.335 L802.0007,239.163 L805.7277,239.163 L828.461,171.335 L853.431,171.335 Z" id="Fill-11"></path>
                <path d="M74.5269,418.2051 C74.5269,418.2051 66.7009,426.0311 52.3529,426.0311 C34.4639,426.0311 18.9979,413.9191 18.9979,395.0991 L18.9979,351.8681 L0.3629,351.8681 L0.3629,333.6061 L9.6809,333.6061 C16.0159,333.6061 20.3019,329.3211 20.3019,322.6121 L20.3019,303.9781 L42.8489,303.9781 L42.8489,331.9301 L66.3279,331.9301 L66.3279,351.8681 L42.8489,351.8681 L42.8489,393.6081 C42.8489,399.9431 48.0669,404.7881 54.7749,404.7881 C60.3649,404.7881 65.5829,401.6211 65.5829,401.6211 L74.5269,418.2051 Z" id="Fill-12"></path>
                <path d="M106.5757,366.7754 L148.5027,366.7754 C145.7067,355.7814 138.0677,351.3084 128.7497,351.3084 C118.5017,351.3084 110.3027,357.0854 106.5757,366.7754 M173.0987,385.5954 L105.0847,385.5954 C107.8797,399.7574 119.4327,404.9744 129.4957,404.9744 C142.1667,404.9744 147.5707,397.1484 147.5707,397.1484 L171.0497,397.1484 C163.9687,415.7824 147.0117,426.0314 128.7497,426.0314 C103.5947,426.0314 81.6057,406.8384 81.6057,377.7694 C81.6057,348.8864 103.4077,330.9984 128.0047,330.9984 C151.8567,330.9984 176.0807,347.5824 173.0987,385.5954" id="Fill-13"></path>
                <path d="M235.1509,426.0313 C209.2499,426.0313 188.0069,406.0933 188.0069,378.7013 C188.0069,350.9363 209.9949,330.9983 236.0829,330.9983 C257.3259,330.9983 275.4009,344.2283 280.6179,366.0303 L255.2759,366.0303 C251.3629,358.3893 244.4679,353.5453 235.5239,353.5453 C222.4799,353.5453 212.0449,363.9803 212.0449,378.5143 C212.0449,393.0493 222.4799,403.4843 235.5239,403.4843 C243.9089,403.4843 250.4309,399.1983 254.5299,392.3033 L280.0589,392.3033 C274.0959,414.4783 254.9029,426.0313 235.1509,426.0313" id="Fill-14"></path>
                <path d="M386.647,374.6016 L386.647,425.0996 L361.677,425.0996 L361.677,380.1916 C361.677,371.0606 363.168,352.6136 346.397,352.6136 C338.199,352.6136 322.359,356.8986 322.359,381.3096 L322.359,425.0996 L297.39,425.0996 L297.39,292.7976 L321.055,292.7976 L321.055,341.6196 L324.223,341.6196 C328.695,336.9606 337.267,330.9976 351.056,330.9976 C375.094,330.9976 386.647,348.8866 386.647,374.6016" id="Fill-15"></path>
                <path d="M415.9033,16.2471 C415.9033,7.3031 423.1703,0.4081 431.9283,0.4081 C440.5003,0.4081 447.5813,7.3031 447.5813,16.2471 C447.5813,24.6331 440.5003,31.9001 431.9283,31.9001 C423.1703,31.9001 415.9033,24.6331 415.9033,16.2471" id="Fill-16"></path>
                <path d="M606.1255,410.3784 C606.1255,401.4344 613.3925,394.5394 622.1505,394.5394 C630.7225,394.5394 637.8035,401.4344 637.8035,410.3784 C637.8035,418.7644 630.7225,426.0314 622.1505,426.0314 C613.3925,426.0314 606.1255,418.7644 606.1255,410.3784" id="Fill-17"></path>
            </g>
        </g>
    </g>
</svg>