<svg id="Layer_1" xmlns="http://www.w3.org/2000/svg" viewBox="0 0 342.4 342.4"><style>.st0{fill:#f0f0f0}.st1{fill:#282828}.st2{fill:#4879bc}</style><circle class="st0" cx="171.2" cy="171.2" r="171.2"/><path class="st1" d="M76 55.1V79h25.2V55.1h13.7v62.3h-13.7V90.5H76v26.9H62.3V55.1H76zm77.4 0l23.3 62.3h-14.2l-4.7-13.9h-23.3l-4.9 13.9h-13.8l23.5-62.3h14.1zm.8 38.2l-7.8-22.8h-.2L138 93.3h16.2zm60.4-21.6c-.8-1.3-1.8-2.5-3.1-3.4-1.2-1-2.6-1.8-4.1-2.3s-3.2-.8-4.8-.8c-3.1 0-5.7.6-7.8 1.8-2.2 1.2-3.9 2.8-5.2 4.8s-2.3 4.3-2.9 6.8c-.6 2.6-.9 5.2-.9 7.9 0 2.6.3 5.2.9 7.6.6 2.5 1.6 4.7 2.9 6.7 1.3 2 3.1 3.6 5.2 4.8 2.1 1.2 4.8 1.8 7.8 1.8 4.2 0 7.5-1.3 9.8-3.8 2.4-2.6 3.8-5.9 4.3-10.1H230c-.3 3.9-1.2 7.4-2.7 10.6-1.5 3.1-3.4 5.8-5.8 8s-5.2 3.9-8.4 5.1-6.7 1.7-10.6 1.7c-4.8 0-9.1-.8-12.9-2.5-3.8-1.7-7-3.9-9.6-6.8s-4.6-6.3-6-10.2c-1.4-3.9-2.1-8.2-2.1-12.7 0-4.6.7-9 2.1-13 1.4-4 3.4-7.5 6-10.4 2.6-3 5.8-5.3 9.6-7s8.1-2.5 12.9-2.5c3.4 0 6.7.5 9.7 1.5s5.8 2.4 8.2 4.3c2.4 1.9 4.4 4.2 6 7 1.6 2.8 2.6 6 3 9.6h-13.3c-.1-1.7-.6-3.2-1.5-4.5zm33.1-16.6v25.8L272 55.1h17.1l-24.3 24.6 26.7 37.7h-17.2l-18.8-28-7.8 7.9v20.1H234V55.1h13.7zM68.8 157.3c.6 1.1 1.3 2 2.3 2.7.9.7 2.1 1.2 3.3 1.5 1.3.3 2.6.5 4 .5.9 0 1.9-.1 3-.2 1.1-.2 2.1-.5 3-.9s1.7-1 2.3-1.8c.6-.8.9-1.8.9-2.9 0-1.3-.4-2.3-1.2-3.1-.8-.8-1.9-1.5-3.2-2s-2.8-1-4.5-1.4-3.4-.8-5.1-1.3c-1.8-.4-3.5-1-5.2-1.6s-3.2-1.5-4.5-2.5c-1.3-1-2.4-2.3-3.2-3.8s-1.2-3.4-1.2-5.5c0-2.4.5-4.5 1.6-6.3 1-1.8 2.4-3.3 4.1-4.5s3.6-2.1 5.7-2.6c2.1-.6 4.2-.9 6.4-.9 2.5 0 4.8.3 7.1.8 2.3.6 4.3 1.4 6.1 2.7 1.8 1.2 3.2 2.8 4.2 4.7s1.6 4.2 1.6 7H86c-.1-1.4-.4-2.6-.9-3.5s-1.2-1.7-2-2.2-1.8-.9-2.9-1.1c-1.1-.2-2.3-.3-3.5-.3-.8 0-1.7.1-2.5.3s-1.6.5-2.3.9c-.7.4-1.2 1-1.7 1.7-.4.7-.7 1.5-.7 2.5 0 .9.2 1.7.5 2.2.4.6 1 1.1 2.1 1.6 1 .5 2.5 1 4.3 1.5s4.2 1.1 7.2 1.9c.9.2 2.1.5 3.7 1s3.1 1.2 4.7 2.2c1.5 1 2.9 2.4 4 4.1 1.1 1.7 1.7 3.9 1.7 6.5 0 2.2-.4 4.2-1.3 6-.8 1.9-2.1 3.5-3.7 4.8-1.7 1.3-3.7 2.4-6.2 3.1-2.4.7-5.3 1.1-8.5 1.1-2.6 0-5.1-.3-7.6-1-2.4-.6-4.6-1.6-6.5-3s-3.4-3.1-4.5-5.2-1.6-4.6-1.6-7.5h10.1c0 1.4.3 2.7.9 3.8zm46.4-35.6l11.1 32.5h.1l10.5-32.5h14.6V169h-9.7v-33.5h-.1L130 169h-8l-11.6-33.2h-.1V169h-9.7v-47.3h14.6zm52.2 0V169H157v-47.3h10.4zm1.5 8.8v-8.7h38.7v8.7h-14.2V169H183v-38.5h-14.1zm50.5-8.8v18.1h19.1v-18.1h10.4V169h-10.4v-20.4h-19.1V169H209v-47.3h10.4zm43.2 35.6c.6 1.1 1.3 2 2.3 2.7.9.7 2.1 1.2 3.3 1.5 1.3.3 2.6.5 4 .5.9 0 1.9-.1 3-.2s2.1-.5 3-.9 1.7-1 2.3-1.8c.6-.8.9-1.8.9-2.9 0-1.3-.4-2.3-1.2-3.1-.8-.8-1.9-1.5-3.2-2s-2.8-1-4.5-1.4-3.4-.8-5.1-1.3c-1.8-.4-3.5-1-5.2-1.6s-3.2-1.5-4.5-2.5-2.4-2.3-3.2-3.8-1.2-3.4-1.2-5.5c0-2.4.5-4.5 1.6-6.3 1-1.8 2.4-3.3 4.1-4.5s3.6-2.1 5.7-2.6c2.1-.6 4.2-.9 6.4-.9 2.5 0 4.8.3 7.1.8 2.3.6 4.3 1.4 6.1 2.7 1.8 1.2 3.2 2.8 4.2 4.7s1.6 4.2 1.6 7H280c-.1-1.4-.4-2.6-.9-3.5s-1.2-1.7-2-2.2-1.8-.9-2.9-1.1c-1.1-.2-2.3-.3-3.5-.3-.8 0-1.7.1-2.5.3s-1.6.5-2.3.9c-.7.4-1.2 1-1.7 1.7-.4.7-.7 1.5-.7 2.5 0 .9.2 1.7.5 2.2.4.6 1 1.1 2.1 1.6 1 .5 2.5 1 4.3 1.5s4.2 1.1 7.2 1.9c.9.2 2.1.5 3.7 1s3.1 1.2 4.7 2.2c1.5 1 2.9 2.4 4 4.1 1.1 1.7 1.7 3.9 1.7 6.5 0 2.2-.4 4.2-1.3 6-.8 1.9-2.1 3.5-3.7 4.8-1.7 1.3-3.7 2.4-6.2 3.1-2.4.7-5.3 1.1-8.5 1.1-2.6 0-5.1-.3-7.6-1-2.4-.6-4.6-1.6-6.5-3s-3.4-3.1-4.5-5.2-1.6-4.6-1.6-7.5h10.1c-.1 1.4.1 2.7.7 3.8z"/><path class="st2" d="M61 196.9v-22.7h144.2v12.6h91.1s-2.9 14.4-38 21.6c-26 5.3-53.1 3.7-53.1 34s38 37.9 38 37.9v15.2H190s0-22.7-22.8-22.7-22.8 22.7-22.8 22.7H91.3v-15.2s37.9-7.6 37.9-37.9c.1-37.9-68.2-45.5-68.2-45.5z"/></svg>